<svg width="521" height="440" viewBox="0 0 521 440" fill="none" xmlns="http://www.w3.org/2000/svg">
    <rect width="521" height="440" rx="10" fill="white"/>
    <path d="M112.198 237.873C111.55 241.684 118.829 253.647 122.549 259.152L83.7355 272.928L83.3989 242.951C93.2686 239.67 112.846 234.062 112.198 237.873Z" fill="#D5AC86"/>
    <path d="M125.504 236.924C131.883 236.715 134.067 227.011 133.545 224.049L132.632 205.879L140.737 199.869C133.614 191.959 130.033 193.736 124.337 171.827C117.217 144.442 85.7143 147.706 65.4519 162.736C45.1894 177.766 57.6687 203.059 67.078 217.438C73.5026 227.257 77.3579 238.921 84.3939 244.173L98.3145 245.154C106.157 244.153 119.125 237.132 125.504 236.924Z" fill="#D5AC86"/>
    <path d="M254.34 200.91L246.84 222.41L261.84 239.41L271.84 215.41C271.673 206.076 271.44 183.61 271.84 168.41C272.24 153.21 268.007 156.41 265.84 159.91L254.34 200.91Z" fill="#D5AC86"/>
    <path d="M117.732 255.608C148.975 250.099 171.953 323.863 179.536 361.434L158.614 365.123L48.4278 384.552C45.1019 259.661 78.6786 262.495 117.732 255.608Z" fill="#FF861D"/>
    <path d="M157.314 365.353L180.647 361.239L169.737 325.357C150.244 256.39 128.877 253.893 118.115 259.992C139.237 265.432 154.551 334.526 157.314 365.353Z" fill="#F26D1F"/>
    <path d="M195.405 282.877L126.724 256.837C122.848 255.368 118.575 257.695 117.705 261.747L110.81 293.88C109.99 297.702 112.568 301.422 116.435 301.996L212.728 316.292C217.705 317.031 222.68 314.95 225.648 310.887L274.975 243.376C277.25 240.262 276.468 235.88 273.257 233.745L250.48 218.601C247.312 216.495 243.03 217.412 241.003 220.632L203.533 280.154C201.817 282.88 198.417 284.019 195.405 282.877Z" fill="#FF861D"/>
    <path d="M427.573 237.873C428.221 241.684 420.943 253.647 417.222 259.152L456.036 272.928L456.373 242.951C446.503 239.671 426.925 234.062 427.573 237.873Z" fill="#F3DBC5"/>
    <path d="M414.268 236.924C407.89 236.716 405.705 227.012 406.228 224.049L407.14 205.88L399.035 199.869C406.158 191.959 409.74 193.736 415.436 171.828C422.556 144.443 454.058 147.706 474.321 162.736C494.583 177.766 482.104 203.059 472.695 217.439C466.27 227.257 462.415 238.922 455.379 244.173L441.458 245.154C433.615 244.153 420.647 237.132 414.268 236.924Z" fill="#F3DBC5"/>
    <path d="M288.366 199.911L295.866 221.411L280.866 238.41L270.866 214.41C271.033 205.077 271.266 182.611 270.866 167.411C270.466 152.211 274.7 155.411 276.866 158.911L288.366 199.911Z" fill="#F3DBC5"/>
    <path d="M422.04 255.609C390.798 250.1 367.82 323.864 360.236 361.435L381.158 365.124L491.345 384.553C494.671 259.662 461.094 262.496 422.04 255.609Z" fill="#691616"/>
    <path d="M382.458 365.353L359.125 361.239L370.034 325.357C389.527 256.39 410.894 253.894 421.657 259.992C400.534 265.433 385.22 334.527 382.458 365.353Z" fill="#3F0E0E"/>
    <path d="M344.368 282.878L413.049 256.838C416.924 255.369 421.198 257.696 422.067 261.748L428.962 293.881C429.782 297.703 427.204 301.423 423.338 301.997L327.044 316.293C322.068 317.032 317.092 314.951 314.124 310.888L264.798 243.377C262.523 240.263 263.305 235.881 266.516 233.746L289.292 218.602C292.461 216.496 296.742 217.413 298.769 220.633L336.239 280.155C337.956 282.881 341.355 284.02 344.368 282.878Z" fill="#691616"/>
    <rect x="308" y="145.287" width="65" height="7" rx="3.5" transform="rotate(-10 308 145.287)" fill="#FF861D"/>
    <rect width="65" height="7" rx="3.5" transform="matrix(-0.984808 -0.173648 -0.173648 0.984808 227.229 145.287)" fill="#691616"/>
    <rect width="65" height="7" rx="3.5" transform="matrix(-0.642788 -0.766044 -0.766044 0.642788 247.144 110.793)" fill="#FF861D"/>
    <rect x="333.144" y="65.5" width="65" height="7" rx="3.5" transform="rotate(130 333.144 65.5)" fill="#691616"/>
    <path d="M420 215.5L408 210L403.5 222.5V236L421.5 241.5H441.5L459 221L460.5 236L473 230L494 203L491 159.5L467 144.5H434C431.667 145.5 426.3 146 423.5 140C417.5 140.4 419.667 153.167 421.5 159.5L429 165L449 169L445.5 176.5L441.5 190.5L443 207.5L427 222.5L420 215.5Z" fill="#F26D1F"/>
    <path d="M104.5 186.5C114.5 174.9 121 168 124.501 154C124.501 148.5 126.501 147 112.001 141.5C97.5005 136 77.5 134 58.9999 148.5C41.4665 162.241 41.0008 180.5 52.5008 210.5C61.7008 234.5 58.3341 258.5 55.5008 267.5C71.834 268.5 112.1 268.4 142.5 260C105.5 257 92.0004 201 104.5 186.5Z" fill="#691616"/>
</svg>
