<svg width="521" height="440" viewBox="0 0 521 440" fill="none" xmlns="http://www.w3.org/2000/svg">
    <rect width="521" height="440" rx="10" fill="white"/>
    <g opacity="0.2">
        <path d="M148.761 114.935L250.96 132.955L260.866 244.528L101.292 216.391L148.761 114.935Z" fill="#FF861D"/>
        <path d="M141.915 96.0929C143.051 89.652 149.193 85.3513 155.634 86.487L253.335 103.714C259.776 104.85 264.076 110.992 262.941 117.433C261.805 123.874 255.663 128.174 249.222 127.039L151.521 109.811C145.08 108.676 140.78 102.534 141.915 96.0929Z" fill="#F26D1F"/>
        <path d="M187.329 74.4386C188.465 67.9977 194.607 63.697 201.048 64.8327L218.065 67.8334C224.506 68.969 228.807 75.1111 227.671 81.5519C226.535 87.9928 220.393 92.2934 213.953 91.1577L196.935 88.1571C190.494 87.0214 186.194 80.8794 187.329 74.4386Z" fill="#FF861D"/>
        <path d="M152.372 272.696C153.508 266.256 159.65 261.955 166.091 263.091L183.108 266.091C189.549 267.227 193.85 273.369 192.714 279.81C191.578 286.251 185.436 290.551 178.996 289.416L161.978 286.415C155.537 285.279 151.237 279.137 152.372 272.696Z" fill="#FF861D"/>
        <path d="M77.6565 229.86C78.7922 223.42 84.9342 219.119 91.3751 220.255L267.967 251.392C274.408 252.528 278.708 258.67 277.572 265.111C276.437 271.552 270.295 275.853 263.854 274.717L87.2624 243.579C80.8215 242.443 76.5208 236.301 77.6565 229.86Z" fill="#F26D1F"/>
    </g>
    <g opacity="0.2">
        <path d="M188.346 129L292.122 129L321.252 237.158L159.216 237.158L188.346 129Z" fill="#FF861D"/>
        <path d="M178.332 111.633C178.332 105.092 183.634 99.7905 190.174 99.7905L289.382 99.7905C295.923 99.7905 301.224 105.092 301.224 111.633C301.224 118.173 295.923 123.475 289.382 123.475L190.174 123.475C183.634 123.475 178.332 118.173 178.332 111.633Z" fill="#F26D1F"/>
        <path d="M219.296 82.4212C219.296 75.881 224.598 70.5791 231.138 70.5791L248.418 70.5791C254.958 70.5791 260.26 75.881 260.26 82.4212C260.26 88.9614 254.958 94.2633 248.418 94.2633L231.138 94.2633C224.598 94.2633 219.296 88.9614 219.296 82.4212Z" fill="#FF861D"/>
        <path d="M219.297 283.737C219.297 277.197 224.599 271.895 231.139 271.895L248.419 271.895C254.959 271.895 260.261 277.197 260.261 283.737C260.261 290.277 254.959 295.579 248.419 295.579L231.139 295.579C224.599 295.579 219.297 290.277 219.297 283.737Z" fill="#FF861D"/>
        <path d="M138.278 254.526C138.278 247.986 143.58 242.684 150.12 242.684L329.436 242.684C335.976 242.684 341.278 247.986 341.278 254.526C341.278 261.066 335.976 266.368 329.436 266.368L150.12 266.368C143.58 266.368 138.278 261.066 138.278 254.526Z" fill="#F26D1F"/>
    </g>
    <path d="M222.777 136.548L324.977 118.528L372.445 219.984L212.871 248.121L222.777 136.548Z" fill="#FF861D"/>
    <path d="M209.9 121.183C208.764 114.742 213.065 108.6 219.506 107.465L317.207 90.2373C323.648 89.1016 329.79 93.4023 330.925 99.8432C332.061 106.284 327.76 112.426 321.32 113.562L223.619 130.789C217.178 131.925 211.036 127.624 209.9 121.183Z" fill="#F26D1F"/>
    <path d="M245.17 85.3028C244.034 78.862 248.335 72.72 254.775 71.5843L271.793 68.5836C278.234 67.4479 284.376 71.7486 285.511 78.1895C286.647 84.6303 282.346 90.7723 275.906 91.908L258.888 94.9087C252.447 96.0444 246.305 91.7437 245.17 85.3028Z" fill="#FF861D"/>
    <path d="M278.446 274.018C278.24 272.847 279.022 271.731 280.193 271.524L316.294 265.158C317.465 264.952 318.581 265.734 318.788 266.905L318.97 267.938C320.934 279.078 313.496 289.701 302.356 291.666C291.216 293.63 280.593 286.192 278.628 275.051L278.446 274.018Z" fill="#691616"/>
    <path d="M195.268 268.862C194.133 262.421 198.433 256.279 204.874 255.143L381.466 224.005C387.907 222.87 394.049 227.17 395.184 233.611C396.32 240.052 392.019 246.194 385.578 247.33L208.987 278.468C202.546 279.603 196.404 275.303 195.268 268.862Z" fill="#F26D1F"/>
    <rect width="65" height="7" rx="3.5" transform="matrix(1 0 0 -1 346.979 298.116)" fill="#FF861D"/>
    <rect x="267.434" y="312.142" width="65" height="7" rx="3.5" transform="rotate(160 267.434 312.142)" fill="#691616"/>
    <rect x="293.036" y="342.653" width="65" height="7" rx="3.5" transform="rotate(120 293.036 342.653)" fill="#FF861D"/>
    <rect width="65" height="7" rx="3.5" transform="matrix(-0.766044 -0.642788 -0.642788 0.766044 385.595 372.324)" fill="#691616"/>
</svg>
